<svg xmlns="http://www.w3.org/2000/svg" width="80" height="81" viewBox="0 0 80 81">
  <g fill="none" stroke="#FFF" stroke-width="2" transform="translate(1 1)">
    <path d="M29.6483565 13.0833051C33.9708743 12.9513791 38.293392 12.8194531 42.6159098 12.687527M42.9163464 12.9912895C42.9163464 35.1407913 41.7496638 22.9273278 48.2454931 49.4106357M48.7321782 50.5846666C51.2664884 50.3263576 53.8007987 50.0680487 56.3351089 49.8097397M57.7862953 49.8097397C44.4092054 68.9018537 51.6163105 64.7525308 42.3620353 69.4190483M21.3048662 56.1344291C37.8162533 62.5423333 30.7106823 58.3453986 43.0637931 67.9445808M20.871395 55.1566243C25.6517737 54.518058 30.4321524 53.8794916 35.2125311 53.2409252M29.861212 15.1231699C29.861212 27.7484679 34.1600494 39.1342898 34.9187462 51.8795372"/>
    <path d="M16.3105234,8.73085457 C62.6358848,-22.1606127 104.390868,42.3333507 55.8972031,75.3147009 C49.0392935,79.9788796 41.0381877,79.573465 33.4343012,77.2182051 C25.2528078,74.6840348 16.6727378,72.931701 9.13552088,68.8636286 C7.49121519,67.9761452 8.69457254,65.073482 7.84730195,63.408099 C-2.17955283,43.6994566 -3.60643511,26.3672634 12.4757994,9.4680883 L16.3105234,8.73085457 Z"/>
  </g>
</svg>
