<svg xmlns="http://www.w3.org/2000/svg" width="344" height="186" viewBox="0 0 344 186">
  <g fill="none" fill-rule="evenodd" transform="translate(1)">
    <g stroke="#FFF" stroke-width="2">
      <path d="M1.78236518,35.1436184 C20.0453255,30.0413279 12.1783585,34.184086 25.8218539,23.5864769 M10.0299136,21.7413522 C12.9799982,26.6176271 15.9300828,31.493902 18.8801674,36.3701768 M29.136734,25.4738966 C29.9526123,25.4119685 52.2678368,27.8233461 49.750318,20.0759819 M38.1350207,16.0420848 C38.1350207,27.5983807 40.508949,25.1105914 41.2067038,34.1814044 M14.4571006,52.0434301 C19.3649456,55.6754469 24.2727905,59.3074638 29.1806354,62.9394807 M19.3838797,48.9777673 C23.4430289,48.6954256 27.5705606,48.9245874 31.5613273,48.1307422 C44.532949,45.5504209 58.5264678,32.5616593 70.1452415,38.8802926 C78.5116314,43.4301833 70.103154,58.3463107 66.7053506,67.2431032 C65.8673087,69.4374283 62.7380878,64.7270879 60.7544564,63.4690802 M31.5128781,60.2513872 C40.0722309,58.1675162 48.6315838,56.0836451 57.1909366,53.999774 M36.7771307,69.1760579 C55.8325243,69.1760579 56.0122225,75.2156308 54.7734902,67.0058694 M0.276530655,83.4568676 C1.32111293,91.571645 16.7806254,141.44105 10.1668434,130.449218"/>
      <path d="M3.50090625,98.4042709 C28.4162315,97.3931764 53.7494429,89.2165915 77.2238318,81.8764223 C83.1041323,80.0377206 90.2461721,70.2952496 94.3397531,74.8997423 C101.079683,82.4808691 97.0778776,95.012387 97.8915782,105.123669 C98.5109006,112.819551 104.412311,123.152193 98.6350223,128.274018 C93.9507093,132.42687 87.7924329,122.013494 82.3711382,118.883233 M40.0666621,49.5975825 C41.6867058,91.5540726 38.8367799,72.8672221 46.393455,105.952317 M32.3599032,111.590798 C38.4962168,110.560051 74.7307353,106.459111 71.4684049,101.239383 M71.2929855,93.4457493 C74.0022407,98.1364083 76.7114958,102.827067 79.420751,107.517726 M121.041927,32.4031402 C139.934083,29.769443 128.620629,32.3970348 153.942252,20.9290409 M131.834396,16.2946275 C136.140803,22.736696 140.44721,29.1787646 144.753617,35.6208331 M171.245288,21.3700954 C195.536816,21.117518 185.084899,23.2845287 203.012905,17.3371199 M189.485564,10.1432539 C189.438785,20.6700885 189.392007,31.196923 189.345228,41.7237575 M145.233097,47.801622 C120.913955,100.607234 147.459872,40.6636952 127.385426,93.1600663 C127.172078,93.7179912 126.327341,93.7147257 125.798298,93.9920554 M138.059279,66.0318741 C145.124957,113.352658 157.526877,122.463594 143.776281,111.843067 M170.329766,52.6883052 C173.428462,66.7917964 176.860838,89.9812079 185.085043,103.463032 C190.872326,112.950045 212.791049,106.627263 208.492673,87.0003394 M176.342474,77.891896 C213.782636,75.9939109 201.537935,81.6361476 216.57366,73.7252677 M255.3497,11.4396868 C251.744081,43.9542702 255.282162,28.8185237 245.654855,57.0520716 M255.890994,30.6088503 C264.846851,27.8750922 273.802707,25.141334 282.758564,22.4075758 M257.376212,34.3260709 C265.57693,37.3572067 273.777647,40.3883425 281.978365,43.4194784 M316.01474,0.802588661 C308.319445,45.1835428 319.156095,33.5917545 304.761168,47.0581779 M315.162703,20.815436 C320.403566,20.2112136 325.64443,19.6069912 330.885293,19.0027688 M315.014014,29.8186277 C326.283641,30.2916064 345.854663,54.4099162 340.135743,38.7633463 M261.202026,68.4175779 C270.088991,97.7317761 266.592703,81.4267584 269.988031,117.666991 M266.24408,68.2388172 C275.74847,68.1641943 285.383784,69.5888371 294.75725,68.0149486 C323.559114,63.178859 344.530033,40.8445654 329.517022,104.019362 C328.647342,107.678977 322.581551,101.104616 319.113816,99.6472427 M279.574284,79.3570657 C295.499527,79.1020675 288.573844,80.5648589 300.609576,76.448445 M286.423994,87.6502265 C287.400773,90.7041947 288.377553,93.7581629 289.354333,96.8121311 M289.629992,89.4495283 C309.81,87.1806455 310.754326,71.6001231 310.209193,98.4243189 M289.374381,102.04297 C294.91652,100.76046 300.458659,99.477949 306.000798,98.1954383"/>
    </g>
    <g fill-rule="nonzero" stroke="#979797" transform="translate(203 140)">
      <path d="M17.7178981 16.3377383C17.7178981 31.6782164 13.8387779 31.0749724 24.3556604 26.0662233M24.3556604 21.9923026C24.3556604 50.2716222 21.7674377 32.03162 30.2078052 28.6065434M29.4174834 25.3841003C29.9365241 27.3363834 30.4555648 29.2886664 30.9746055 31.2409494"/>
      <polyline points="21.825 45.039 25.602 45.039 25.993 45.039 26.383 45.039 27.555 45.039 27.945 45.039 28.335 45.039"/>
      <path d="M28.3354952 41.6938961C28.1943663 39.3025454 28.0532374 36.9111947 27.9121085 34.519844M33.3808657 34.4651134C35.9227671 37.0992612 38.4646685 39.733409 41.0065699 42.3675568M42.626007 13.904411C40.5777948 19.6123006 38.5295826 25.3201903 36.4813704 31.02808M43.1333624 13.4209714C46.9063549 13.8560101 50.6793474 14.2910487 54.45234 14.7260874M42.1374427 25.3327176C44.0865754 25.0297849 46.0357081 24.7268522 47.9848408 24.4239196M43.4323091 35.3807445C44.9059742 37.7307506 46.3796392 40.0807567 47.8533043 42.4307627M44.5648902 35.6386929C68.1833828 33.137597 59.1925503 40.6092229 48.0702542 42.1779392M82.2919684 8.36450085C84.4603287 16.4651033 86.9920745 24.4770706 88.7970494 32.6663082 89.4281793 35.529768 92.0283522 39.8153924 89.5794357 41.42801 86.5723472 43.4081851 82.5482084 39.8734869 79.0325948 39.0962254M77.9666361 22.7600674C75.8421213 27.0011251 73.7176065 31.2421828 71.5930917 35.4832406M93.1206733 22.6575714C95.7701955 24.6653546 98.4197177 26.6731379 101.06924 28.6809211M115.008699.848125752C116.363355 3.37123621 117.718011 5.89434667 119.072667 8.41745713M102.270152 18.3954451C103.213115 19.5673163 104.156079 20.7391875 105.099042 21.9110587M104.513106 16.5231844C132.025007 11.7446057 127.503331-.338607017 131.27311 22.2544204M110.104264 25.2165555C114.82022 23.4393883 119.536176 21.6622211 124.252132 19.885054M114.836164 33.7613074C118.795927 33.151456 122.75569 32.5416047 126.715453 31.9317533M117.555725 24.3521723C119.078361 30.5087669 120.600996 36.6653614 122.123632 42.8219559M114.759292 44.607095C122.812063 42.3755288 130.864834 40.1439625 138.917605 37.9123963"/>
      <polyline points="124.693 35.249 126.521 35.249 127.327 35.249 128.275 35.249 128.417 35.249 128.559 35.249 128.7 35.249"/>
      <path d="M0.537904544,43.6475671 C2.42644107,43.4257114 4.3149776,43.2038557 6.20351412,42.982"/>
    </g>
  </g>
</svg>
